<svg xmlns="http://www.w3.org/2000/svg" xmlns:xlink="http://www.w3.org/1999/xlink" width="100" height="95.76" x="0" y="0" enable-background="new 0 0 100 95.76" version="1.1" viewBox="0 0 100 95.76" xml:space="preserve"><g id="Layer_1" display="none"><path d="M-0.068,17.242l4.131,22.594l94.305-17.242L94.236,0L-0.068,17.242z M48.314,14.487l10.5-1.92 l-8.831,12.781l-10.499,1.92L48.314,14.487z M28.372,29.301L17.873,31.22l8.83-12.781l10.499-1.92L28.372,29.301z M69.927,10.535 l10.499-1.919l-8.83,12.781l-10.498,1.919L69.927,10.535z M15.591,20.47l-7.1,10.276l-1.589-8.688L15.591,20.47z M82.708,19.366 l7.101-10.277l1.588,8.688L82.708,19.366z" display="inline"/><path d="M4.062,39.836V95.76h95.87V39.836H4.062z M91.941,70.794H12.124V47.825h79.817V70.794z" display="inline"/></g><g id="Layer_2"><circle cx="49.881" cy="47.88" r="45.75"/><g><rect width="18.65" height="53" x="26.568" y="21.38" fill="#FFF"/><rect width="18.65" height="53" x="54.544" y="21.38" fill="#FFF"/></g></g></svg>