<svg xmlns="http://www.w3.org/2000/svg" xmlns:xlink="http://www.w3.org/1999/xlink" id="Layer_1" width="100" height="51.086" x="0" y="0" enable-background="new 0 0 100 51.086" version="1.1" viewBox="0 0 100 51.086" xml:space="preserve"><circle cx="13.955" cy="42.837" r="8.249" fill="#B8E825"/><circle cx="76.521" cy="42.837" r="8.249" fill="#B8E825"/><rect width="67.637" height="32.322" x="32.363" fill="#B8E825"/><path fill="#B8E825" d="M70.126,34.587H28.073V7.999L6.438,9.646c0,0-4.745,11.746-6.438,15.884v11.203v4.021	c0,1.15,0.933,2.084,2.083,2.084h1.432c0-5.768,4.675-10.439,10.44-10.439c5.767,0,10.44,4.674,10.44,10.439h41.686	C66.081,39.48,67.666,36.497,70.126,34.587z M19.733,23.681L3.08,25.775l4.81-12.491l11.844-0.903L19.733,23.681L19.733,23.681z"/><path fill="#B8E825" d="M99.943,34.587H82.917c2.46,1.91,4.045,4.894,4.045,8.25h2.437h4.322l6.244-2.211L99.943,34.587z"/></svg>