<svg xmlns="http://www.w3.org/2000/svg" xmlns:svg="http://www.w3.org/2000/svg" xmlns:xlink="http://www.w3.org/1999/xlink" id="Layer_2" width="550" height="480" version="1.0" viewBox="0 0 414.772 500.994" xml:space="preserve"><g id="g3272" transform="translate(-3.8164787,-80)"><g id="g3132" transform="translate(-18.434315,0)"><circle id="circle3554" cx="39.4" cy="141.48" r="3.555" transform="matrix(1.296365,0,0,1.296365,202.38592,-57.340438)"/><rect id="rect3556" width="27.651" height="9.217" x="285.732" y="121.457"/><circle id="circle3558" cx="39.4" cy="141.48" r="3.555" transform="matrix(1.296365,0,0,1.296365,220.82023,-57.340438)"/><circle id="circle3560" cx="39.4" cy="141.48" r="3.555" transform="matrix(1.296365,0,0,1.296365,202.38592,-38.906127)"/><circle id="circle3562" cx="39.4" cy="141.48" r="3.555" transform="matrix(1.296365,0,0,1.296365,220.82023,-38.906126)"/><circle id="circle3564" cx="39.4" cy="141.48" r="3.555" transform="matrix(1.296365,0,0,1.296365,239.25454,-38.906126)"/><rect id="rect3566" width="27.651" height="9.217" x="304.166" y="139.891"/><circle id="circle3568" cx="39.4" cy="141.48" r="3.555" transform="matrix(1.296365,0,0,1.296365,202.38592,-20.471816)"/><rect id="rect3570" width="27.651" height="9.217" x="267.298" y="158.325"/><rect id="rect3572" width="27.651" height="9.217" x="304.166" y="158.325"/><rect id="rect3574" width="27.651" height="9.217" x="248.863" y="176.76"/><circle id="circle3576" cx="39.4" cy="141.48" r="3.555" transform="matrix(1.296365,0,0,1.296365,239.25454,-2.0375037)"/><circle id="circle3578" cx="39.4" cy="141.48" r="3.555" transform="matrix(1.296365,0,0,1.296365,257.68885,-2.0375037)"/><rect id="rect3580" width="27.651" height="9.217" x="322.6" y="176.76"/><rect id="rect3588" width="27.651" height="9.217" x="248.863" y="195.194"/><rect id="rect3590" width="27.651" height="9.217" x="304.166" y="195.194"/><rect id="rect3592" width="27.651" height="9.217" x="341.035" y="195.194"/><circle id="circle3594" cx="39.4" cy="141.48" r="3.555" transform="matrix(1.296365,0,0,1.296365,239.25454,16.396807)"/><rect id="rect3596" width="27.651" height="9.217" x="248.863" y="213.628"/><rect id="rect3598" width="27.651" height="9.217" x="285.732" y="213.628"/><circle id="circle3600" cx="39.4" cy="141.48" r="3.555" transform="matrix(1.296365,0,0,1.296365,276.12316,34.831118)"/><circle id="circle3602" cx="39.4" cy="141.48" r="3.555" transform="matrix(1.296365,0,0,1.296365,294.55748,34.831118)"/><g id="g2615" transform="translate(-1.8497366,0)"><text id="text3604" x="231.225" y="130.674" xml:space="preserve" style="font-size:18px;font-family:DejaVu Sans">U</text><text id="text3608" x="231.748" y="149.108" xml:space="preserve" style="font-size:18px;font-family:DejaVu Sans">V</text><text id="text3612" x="229.155" y="167.318" xml:space="preserve" style="font-size:18px;font-family:DejaVu Sans">W</text><text id="text3616" x="231.734" y="185.977" xml:space="preserve" style="font-size:18px;font-family:DejaVu Sans">X</text><text id="text3620" x="231.761" y="204.411" xml:space="preserve" style="font-size:18px;font-family:DejaVu Sans">Y</text><text id="text3624" x="232.279" y="222.846" xml:space="preserve" style="font-size:18px;font-family:DejaVu Sans">Z</text></g></g><g id="g3169"><circle id="circle2870" cx="39.4" cy="141.48" r="3.555" transform="matrix(1.296365,0,0,1.296365,-9.6086576,-57.340437)"/><rect id="rect3010" width="27.651" height="9.217" x="55.303" y="121.457"/><circle id="circle3324" cx="39.4" cy="141.48" r="3.555" transform="matrix(1.296365,0,0,1.296365,27.496285,-38.906126)"/><circle id="circle3326" cx="39.4" cy="141.48" r="3.555" transform="matrix(1.296365,0,0,1.296365,45.694276,-38.611276)"/><circle id="circle3328" cx="39.4" cy="141.48" r="3.555" transform="matrix(1.296365,0,0,1.296365,64.122679,-38.906126)"/><rect id="rect3330" width="27.651" height="9.217" x="36.869" y="158.325"/><circle id="circle3332" cx="39.4" cy="141.48" r="3.555" transform="matrix(1.296365,0,0,1.296365,27.23125,-20.471815)"/><rect id="rect3334" width="27.651" height="9.217" x="92.172" y="158.325"/><circle id="circle3336" cx="39.4" cy="141.48" r="3.555" transform="matrix(1.296365,0,0,1.296365,82.623628,-20.471815)"/><rect id="rect3338" width="27.651" height="9.217" x="36.869" y="176.76"/><circle id="circle3340" cx="39.4" cy="141.48" r="3.555" transform="matrix(1.296365,0,0,1.296365,27.17162,-2.0375044)"/><circle id="circle3342" cx="39.4" cy="141.48" r="3.555" transform="matrix(1.296365,0,0,1.296365,45.694276,-1.8597136)"/><circle id="circle3412" cx="39.4" cy="141.48" r="3.555" transform="matrix(1.296365,0,0,1.296365,-9.6086576,16.396807)"/><circle id="circle3414" cx="39.4" cy="141.48" r="3.555" transform="matrix(1.296365,0,0,1.296365,-9.6086574,34.831118)"/><circle id="circle3416" cx="39.4" cy="141.48" r="3.555" transform="matrix(1.296365,0,0,1.296365,8.8256537,34.831118)"/><rect id="rect3420" width="27.651" height="9.217" x="73.737" y="213.628"/><circle id="circle3422" cx="39.4" cy="141.48" r="3.555" transform="matrix(1.296365,0,0,1.296365,64.128587,34.831118)"/><rect id="rect3424" width="27.651" height="9.217" x="36.869" y="232.063"/><rect id="rect3426" width="27.651" height="9.217" x="73.737" y="232.063"/><circle id="circle3428" cx="39.4" cy="141.48" r="3.555" transform="matrix(1.296365,0,0,1.296365,64.128587,53.265429)"/><circle id="circle3458" cx="39.4" cy="141.48" r="3.555" transform="matrix(1.296365,0,0,1.296365,-9.6086576,71.69974)"/><circle id="circle3460" cx="39.4" cy="141.48" r="3.555" transform="matrix(1.296365,0,0,1.296365,8.8256535,71.69974)"/><circle id="circle3462" cx="39.4" cy="141.48" r="3.555" transform="matrix(1.296365,0,0,1.296365,27.259965,71.69974)"/><circle id="circle3464" cx="39.4" cy="141.48" r="3.555" transform="matrix(1.296365,0,0,1.296365,45.694276,71.69974)"/><circle id="circle3466" cx="39.4" cy="141.48" r="3.555" transform="matrix(1.296365,0,0,1.296365,-9.6086576,90.134051)"/><circle id="circle3468" cx="39.4" cy="141.48" r="3.555" transform="matrix(1.296365,0,0,1.296365,8.8256537,90.134051)"/><circle id="circle3470" cx="39.4" cy="141.48" r="3.555" transform="matrix(1.296365,0,0,1.296365,-9.6086576,108.56836)"/><rect id="rect3472" width="27.651" height="9.217" x="55.303" y="287.366"/><rect id="rect3474" width="27.651" height="9.217" x="92.172" y="287.366"/><rect id="rect3476" width="27.651" height="9.217" x="129.04" y="287.366"/><rect id="rect3478" width="27.651" height="9.217" x="36.869" y="305.8"/><circle id="circle3480" cx="39.4" cy="141.48" r="3.555" transform="matrix(1.296365,0,0,1.296365,27.259965,127.00267)"/><rect id="rect3482" width="27.651" height="9.217" x="92.172" y="305.8"/><circle id="circle3484" cx="39.4" cy="141.48" r="3.555" transform="matrix(1.296365,0,0,1.296365,-9.6086576,145.43698)"/><rect id="rect3486" width="27.651" height="9.217" x="55.303" y="324.234"/><circle id="circle3488" cx="39.4" cy="141.48" r="3.555" transform="matrix(1.296365,0,0,1.296365,45.694276,145.43698)"/><circle id="circle3490" cx="39.4" cy="141.48" r="3.555" transform="matrix(1.296365,0,0,1.296365,64.128587,145.43698)"/><rect id="rect3492" width="27.651" height="9.217" x="36.869" y="342.669"/><rect id="rect3494" width="27.651" height="9.217" x="73.737" y="342.669"/><rect id="rect3496" width="27.651" height="9.217" x="36.869" y="361.103"/><circle id="circle3498" cx="39.4" cy="141.48" r="3.555" transform="matrix(1.296365,0,0,1.296365,27.259965,182.30561)"/><rect id="rect3500" width="27.651" height="9.217" x="36.869" y="379.537"/><rect id="rect3502" width="27.651" height="9.217" x="73.737" y="379.537"/><rect id="rect3504" width="27.651" height="9.217" x="110.606" y="379.537"/><circle id="circle3506" cx="39.4" cy="141.48" r="3.555" transform="matrix(1.296365,0,0,1.296365,-9.6086576,219.17423)"/><rect id="rect3508" width="27.651" height="9.217" x="55.303" y="397.971"/><rect id="rect3510" width="27.651" height="9.217" x="92.172" y="397.971"/><circle id="circle3512" cx="39.4" cy="141.48" r="3.555" transform="matrix(1.296365,0,0,1.296365,82.562898,219.17423)"/><rect id="rect3514" width="27.651" height="9.217" x="36.869" y="416.406"/><rect id="rect3516" width="27.651" height="9.217" x="73.737" y="416.406"/><circle id="circle3518" cx="39.4" cy="141.48" r="3.555" transform="matrix(1.296365,0,0,1.296365,64.128587,237.60854)"/><rect id="rect3520" width="27.651" height="9.217" x="129.04" y="416.406"/><circle id="circle3522" cx="39.4" cy="141.48" r="3.555" transform="matrix(1.296365,0,0,1.296365,-9.6086574,256.04285)"/><rect id="rect3524" width="27.651" height="9.217" x="55.303" y="434.84"/><circle id="circle3526" cx="39.4" cy="141.48" r="3.555" transform="matrix(1.296365,0,0,1.296365,45.694276,256.04285)"/><circle id="circle3528" cx="39.4" cy="141.48" r="3.555" transform="matrix(1.296365,0,0,1.296365,27.259965,274.47716)"/><circle id="circle3530" cx="39.4" cy="141.48" r="3.555" transform="matrix(1.296365,0,0,1.296365,8.8256537,274.47716)"/><circle id="circle3532" cx="39.4" cy="141.48" r="3.555" transform="matrix(1.296365,0,0,1.296365,-9.6086574,274.47716)"/><rect id="rect3534" width="27.651" height="9.217" x="36.869" y="471.709"/><g id="g2573"><text id="text3309" x="17.138" y="130.674" xml:space="preserve" style="font-size:18px;font-family:DejaVu Sans">A</text><text id="text3344" x="16.954" y="149.108" xml:space="preserve" style="font-size:18px;font-family:DejaVu Sans">B</text><text id="text3350" x="16.535" y="167.318" xml:space="preserve" style="font-size:18px;font-family:DejaVu Sans">C</text><text id="text3356" x="16.409" y="185.977" xml:space="preserve" style="font-size:18px;font-family:DejaVu Sans">D</text><text id="text3360" x="16.904" y="204.411" xml:space="preserve" style="font-size:18px;font-family:DejaVu Sans">E</text><text id="text3364" x="17.323" y="222.846" xml:space="preserve" style="font-size:18px;font-family:DejaVu Sans">F</text><text id="text3368" x="16.202" y="241.055" xml:space="preserve" style="font-size:18px;font-family:DejaVu Sans">G</text><text id="text3372" x="16.634" y="259.714" xml:space="preserve" style="font-size:18px;font-family:DejaVu Sans">H</text><text id="text3376" x="20.694" y="278.148" xml:space="preserve" style="font-size:18px;font-family:DejaVu Sans">I</text><text id="text3380" x="19.145" y="296.583" xml:space="preserve" style="font-size:18px;font-family:DejaVu Sans">J</text><text id="text3384" x="16.481" y="315.017" xml:space="preserve" style="font-size:18px;font-family:DejaVu Sans">K</text><text id="text3388" x="17.813" y="333.451" xml:space="preserve" style="font-size:18px;font-family:DejaVu Sans">L</text><text id="text3392" x="15.621" y="351.886" xml:space="preserve" style="font-size:18px;font-family:DejaVu Sans">M</text><text id="text3396" x="16.684" y="370.32" xml:space="preserve" style="font-size:18px;font-family:DejaVu Sans">N</text><text id="text3400" x="16.085" y="388.754" xml:space="preserve" style="font-size:18px;font-family:DejaVu Sans">O</text><text id="text3404" x="16.058" y="425.623" xml:space="preserve" style="font-size:18px;font-family:DejaVu Sans">Q</text><text id="text3408" x="16.828" y="407.189" xml:space="preserve" style="font-size:18px;font-family:DejaVu Sans">P</text><text id="text3536" x="16.022" y="444.057" xml:space="preserve" style="font-size:18px;font-family:DejaVu Sans">R</text><text id="text3540" x="17.206" y="462.492" xml:space="preserve" style="font-size:18px;font-family:DejaVu Sans">S</text><text id="text3544" x="17.624" y="480.926" xml:space="preserve" style="font-size:18px;font-family:DejaVu Sans">T</text></g><use id="use2703" width="414.772" height="500.994" x="0" y="0" transform="translate(-18.43431,18.434311)" xlink:href="#rect3010"/></g><g id="g3051" transform="translate(-18.434314,64.295099)"><use id="use2707" width="414.772" height="500.994" x="0" y="0" transform="translate(211.99458,119.82302)" xlink:href="#rect3010"/><use id="use2709" width="414.772" height="500.994" x="0" y="0" transform="translate(248.8632,119.82301)" xlink:href="#rect3010"/><use id="use2711" width="414.772" height="500.994" x="0" y="0" xlink:href="#use2709"/><use id="use2713" width="414.772" height="500.994" x="0" y="0" transform="translate(285.73182,119.82301)" xlink:href="#rect3010"/><use id="use2715" width="414.772" height="500.994" x="0" y="0" transform="translate(322.60045,119.82301)" xlink:href="#rect3010"/><use id="use2717" width="414.772" height="500.994" x="0" y="0" transform="translate(211.99458,119.82302)" xlink:href="#circle2870"/><use id="use2719" width="414.772" height="500.994" x="0" y="0" transform="translate(211.99458,138.25733)" xlink:href="#circle2870"/><use id="use2721" width="414.772" height="500.994" x="0" y="0" transform="translate(230.42889,138.25733)" xlink:href="#circle2870"/><use id="use2723" width="414.772" height="500.994" x="0" y="0" transform="translate(230.42889,138.25733)" xlink:href="#rect3010"/><use id="use2725" width="414.772" height="500.994" x="0" y="0" transform="translate(267.29751,138.25733)" xlink:href="#rect3010"/><use id="use2727" width="414.772" height="500.994" x="0" y="0" transform="translate(304.16613,138.25732)" xlink:href="#rect3010"/><use id="use2779" width="414.772" height="500.994" x="0" y="0" transform="translate(211.99458,156.69164)" xlink:href="#circle2870"/><use id="use2781" width="414.772" height="500.994" x="0" y="0" transform="translate(18.434309,4.0522843e-6)" xlink:href="#use2779"/><use id="use2783" width="414.772" height="500.994" x="0" y="0" transform="translate(18.434311,0)" xlink:href="#use2781"/><use id="use2785" width="414.772" height="500.994" x="0" y="0" transform="translate(18.434309,18.434308)" xlink:href="#use2723"/><use id="use2787" width="414.772" height="500.994" x="0" y="0" transform="translate(36.868622,9.8155382e-8)" xlink:href="#use2785"/><use id="use2789" width="414.772" height="500.994" x="0" y="0" transform="translate(2.324722e-7,18.434311)" xlink:href="#use2779"/><use id="use2791" width="414.772" height="500.994" x="0" y="0" transform="translate(18.434311,7.8636818e-8)" xlink:href="#use2789"/><use id="use2793" width="414.772" height="500.994" x="0" y="0" transform="translate(18.434311,0)" xlink:href="#use2791"/><use id="use2795" width="414.772" height="500.994" x="0" y="0" transform="translate(18.434311,0)" xlink:href="#use2793"/><use id="use2797" width="414.772" height="500.994" x="0" y="0" transform="translate(18.434313,18.434307)" xlink:href="#use2785"/><use id="use2799" width="414.772" height="500.994" x="0" y="0" transform="translate(-2.3247221e-7,18.434311)" xlink:href="#use2789"/><use id="use2801" width="414.772" height="500.994" x="0" y="0" transform="translate(18.434311,-4.2724257e-8)" xlink:href="#use2799"/><use id="use2803" width="414.772" height="500.994" x="0" y="0" transform="translate(18.434311,0)" xlink:href="#use2801"/><use id="use2805" width="414.772" height="500.994" x="0" y="0" transform="translate(18.434312,0)" xlink:href="#use2803"/><use id="use2807" width="414.772" height="500.994" x="0" y="0" transform="translate(18.434311,0)" xlink:href="#use2805"/><use id="use2809" width="414.772" height="500.994" x="0" y="0" transform="translate(36.868622,36.868622)" xlink:href="#use2789"/><use id="use2811" width="414.772" height="500.994" x="0" y="0" transform="translate(36.868622,36.868622)" xlink:href="#use2791"/><use id="use2813" width="414.772" height="500.994" x="0" y="0" transform="translate(36.868622,36.868622)" xlink:href="#use2793"/><use id="use2815" width="414.772" height="500.994" x="0" y="0" transform="translate(36.868622,36.868622)" xlink:href="#use2795"/><use id="use2817" width="414.772" height="500.994" x="0" y="0" transform="translate(-73.737245,36.868622)" xlink:href="#use2797"/><use id="use2819" width="414.772" height="500.994" x="0" y="0" xlink:href="#use2779"/><use id="use2821" width="414.772" height="500.994" x="0" y="0" xlink:href="#use2781"/><use id="use2823" width="414.772" height="500.994" x="0" y="0" xlink:href="#use2783"/><use id="use2825" width="414.772" height="500.994" x="0" y="0" xlink:href="#use2785"/><use id="use2827" width="414.772" height="500.994" x="0" y="0" xlink:href="#use2787"/><use id="use2829" width="414.772" height="500.994" x="0" y="0" transform="translate(73.737242,73.737248)" xlink:href="#use2779"/><use id="use2831" width="414.772" height="500.994" x="0" y="0" transform="translate(73.737244,73.737244)" xlink:href="#use2781"/><use id="use2833" width="414.772" height="500.994" x="0" y="0" transform="translate(73.737244,73.737244)" xlink:href="#use2783"/><use id="use2845" width="414.772" height="500.994" x="0" y="0" transform="translate(-55.302932,73.73724)" xlink:href="#use2825"/><use id="use2847" width="414.772" height="500.994" x="0" y="0" transform="translate(-55.302931,73.737251)" xlink:href="#use2827"/><use id="use2849" width="414.772" height="500.994" x="0" y="0" transform="translate(36.868622,18.434311)" xlink:href="#use2829"/><use id="use2851" width="414.772" height="500.994" x="0" y="0" transform="translate(36.868622,18.434311)" xlink:href="#use2831"/><use id="use2855" width="414.772" height="500.994" x="0" y="0" transform="translate(36.868622,18.434311)" xlink:href="#use2845"/><use id="use2857" width="414.772" height="500.994" x="0" y="0" transform="translate(36.868622,18.434311)" xlink:href="#use2847"/><use id="use2859" width="414.772" height="500.994" x="0" y="0" transform="translate(-36.868622,3.3648014e-7)" xlink:href="#use2855"/><use id="use2861" width="414.772" height="500.994" x="0" y="0" transform="translate(-18.434316,147.4745)" xlink:href="#use2707"/><use id="use2863" width="414.772" height="500.994" x="0" y="0" transform="translate(-18.434316,147.4745)" xlink:href="#use2709"/><use id="use2865" width="414.772" height="500.994" x="0" y="0" transform="translate(-18.434316,147.4745)" xlink:href="#use2711"/><use id="use2867" width="414.772" height="500.994" x="0" y="0" transform="translate(-18.434316,147.4745)" xlink:href="#use2713"/><use id="use2869" width="414.772" height="500.994" x="0" y="0" transform="translate(-18.434316,147.4745)" xlink:href="#use2715"/><use id="use2873" width="414.772" height="500.994" x="0" y="0" transform="translate(-110.60587,18.434302)" xlink:href="#use2869"/><use id="use2875" width="414.772" height="500.994" x="0" y="0" transform="translate(18.434312,18.434312)" xlink:href="#use2851"/><use id="use2877" width="414.772" height="500.994" x="0" y="0" transform="translate(36.868625,18.434302)" xlink:href="#use2861"/><use id="use2879" width="414.772" height="500.994" x="0" y="0" transform="translate(36.868625,18.434302)" xlink:href="#use2863"/><use id="use2881" width="414.772" height="500.994" x="0" y="0" transform="translate(36.868625,18.434302)" xlink:href="#use2865"/><use id="use2883" width="414.772" height="500.994" x="0" y="0" transform="translate(36.868625,18.434302)" xlink:href="#use2867"/><use id="use2885" width="414.772" height="500.994" x="0" y="0" transform="translate(36.868625,18.434302)" xlink:href="#use2869"/><g id="g3029"><text id="text2889" x="231.757" y="250.497" xml:space="preserve" style="font-size:18px;font-family:DejaVu Sans">1</text><text id="text2893" x="231.284" y="268.931" xml:space="preserve" style="font-size:18px;font-family:DejaVu Sans">2</text><text id="text2897" x="231.099" y="287.141" xml:space="preserve" style="font-size:18px;font-family:DejaVu Sans">3</text><text id="text2901" x="231.397" y="305.8" xml:space="preserve" style="font-size:18px;font-family:DejaVu Sans">4</text><text id="text2905" x="231.054" y="324.234" xml:space="preserve" style="font-size:18px;font-family:DejaVu Sans">5</text><text id="text2909" x="231.144" y="342.669" xml:space="preserve" style="font-size:18px;font-family:DejaVu Sans">6</text><text id="text2913" x="231.05" y="360.878" xml:space="preserve" style="font-size:18px;font-family:DejaVu Sans">7</text><text id="text2917" x="231.099" y="379.537" xml:space="preserve" style="font-size:18px;font-family:DejaVu Sans">8</text><text id="text2921" x="231.09" y="397.971" xml:space="preserve" style="font-size:18px;font-family:DejaVu Sans">9</text><text id="text2925" x="231.126" y="416.406" xml:space="preserve" style="font-size:18px;font-family:DejaVu Sans">0</text></g></g></g></svg>